<?xml version="1.0" encoding="UTF-8"?>
<svg viewBox="0 0 17 24" xmlns="http://www.w3.org/2000/svg">
<path d="M1.752 2.592h0.624q0.144 1.104 0.72 1.896t1.404 1.308 1.86 0.768 2.112 0.252q1.032 0 2.028-0.216t1.824-0.708 1.428-1.296 0.816-1.956q0.144-0.024 0.3-0.012t0.3 0.012q0.144 0.624 0.348 1.308t0.384 1.368 0.324 1.32 0.168 1.116q0.048 0.768-0.288 2.184t-0.936 3.12-1.404 3.504-1.692 3.312q-0.168-1.632-0.396-2.916t-0.66-1.836q-0.696-0.144-1.416-0.192t-1.404-0.036-1.272 0.084-0.996 0.168q-0.528 0.744-0.72 1.944t-0.264 2.856q-0.936-1.512-1.752-3.24t-1.416-3.372-0.948-3-0.348-2.1q0-0.624 0.096-1.212t0.276-1.236 0.42-1.416 0.48-1.728v-0.048zM12.6 10.68q-0.624 0.264-1.044 0.396t-0.852 0.252q0.408 0.192 0.828 0.312t1.044 0.12q0.096 0 0.312-0.108t0.48-0.276 0.516-0.384 0.42-0.408q0.264-0.336 0.324-0.564t0.036-0.444q-0.624 0.36-0.912 0.516t-0.432 0.252-0.276 0.144-0.444 0.192z" />
</svg>